<svg width="32" height="32" viewBox="0 0 32 32" fill="none" xmlns="http://www.w3.org/2000/svg">
  <!-- Background circle with gradient -->
  <defs>
    <linearGradient id="bgGradient" x1="0%" y1="0%" x2="100%" y2="100%">
      <stop offset="0%" style="stop-color:#F2BB1D;stop-opacity:1" />
      <stop offset="100%" style="stop-color:#E93323;stop-opacity:1" />
    </linearGradient>
  </defs>
  
  <!-- Background -->
  <circle cx="16" cy="16" r="16" fill="url(#bgGradient)"/>
  
  <!-- Letter "B" for Blinkeach -->
  <path d="M9 8v16h6.5c2.5 0 4.5-2 4.5-4.5 0-1.5-0.7-2.8-1.8-3.5C18.8 15.3 19 14.4 19 13.5 19 11 17 9 14.5 9H9z M12 11h2.5c1 0 1.5 0.5 1.5 1.5S15.5 14 14.5 14H12V11z M12 17h3c1 0 1.5 0.5 1.5 1.5S16 20 15 20h-3V17z" fill="white"/>
  
  <!-- Small accent dot -->
  <circle cx="22" cy="10" r="2" fill="#1A4EC7"/>
</svg>